<svg xmlns="http://www.w3.org/2000/svg" xmlns:xlink="http://www.w3.org/1999/xlink" viewBox="0 0 60 75" version="1.1" x="0px" y="0px"><title>47 -Canvas Painting- (Solid)</title><desc>Created with Sketch.</desc><g stroke="none" stroke-width="1" fill="none" fill-rule="evenodd"><g transform="translate(-840.000000, -850.000000)" fill="#000000"><g transform="translate(840.000000, 850.000000)"><path d="M58,39.0045 L40,39.0045 L20,39.0045 L2,39.0045 L2,37.0045 L6,37.0045 L54,37.0045 L58,37.0045 L58,39.0045 Z M37.754,49.0045 L35.883,49.0045 L34.428,45.0045 L36.3,45.0045 L37.754,49.0045 Z M23.117,49.0045 L21.246,49.0045 L22.7,45.0045 L24.572,45.0045 L23.117,49.0045 Z M34,2.0045 L34,5.0045 L34,6.0045 L26,6.0045 L26,5.0045 L26,2.0045 L34,2.0045 Z M59,35.0045 L55,35.0045 L55,16.4185 L54.707,16.7115 L42.507,27.4115 C42.504,28.3015 42.404,29.3625 41.64,30.1395 C41.075,30.7135 40.261,31.0045 39.218,31.0045 L33,31.0045 C26.832,31.0045 23,28.3225 23,24.0045 C23,22.3505 21.654,21.0045 20,21.0045 C14.785,21.0045 11,16.7985 11,11.0045 C11,10.4525 11.447,10.0045 12,10.0045 L14,10.0045 C14.553,10.0045 15,10.4525 15,11.0045 C15,13.1585 17.749,15.0045 20,15.0045 C24.963,15.0045 29,19.0425 29,24.0045 C29,25.8045 31.319,28.7645 32.826,28.9835 C33.386,28.7085 35.008,27.7595 35.008,25.9625 C35.008,23.0045 37.619,23.0045 38.602,23.0045 L38.809,23.0045 C38.883,23.0045 38.951,23.0215 39.023,23.0255 L53.26,7.3325 L55,5.5915 L55,5.0045 C55,4.4525 54.553,4.0045 54,4.0045 L36,4.0045 L36,2.0045 L39,2.0045 C39.553,2.0045 40,1.5565 40,1.0045 C40,0.4525 39.553,0.0045 39,0.0045 L35,0.0045 L25,0.0045 L21,0.0045 C20.447,0.0045 20,0.4525 20,1.0045 C20,1.5565 20.447,2.0045 21,2.0045 L24,2.0045 L24,4.0045 L6,4.0045 C5.447,4.0045 5,4.4525 5,5.0045 L5,35.0045 L1,35.0045 C0.447,35.0045 0,35.4525 0,36.0045 L0,40.0045 C0,40.5565 0.447,41.0045 1,41.0045 L19,41.0045 L19,44.0045 C19,44.5565 19.447,45.0045 20,45.0045 L20.572,45.0045 L18.997,49.3365 C18.859,49.7175 18.916,50.1435 19.149,50.4755 C19.382,50.8065 19.763,51.0045 20.168,51.0045 L20.457,51.0045 L18.046,58.7055 C17.881,59.2325 18.174,59.7935 18.701,59.9585 C18.801,59.9895 18.901,60.0045 19,60.0045 C19.426,60.0045 19.82,59.7315 19.954,59.3035 L22.553,51.0045 L23.708,51.0045 C24.193,51.0045 24.631,50.6975 24.795,50.2425 L26.7,45.0045 L32.3,45.0045 L34.204,50.2415 C34.369,50.6975 34.807,51.0045 35.292,51.0045 L36.447,51.0045 L39.046,59.3035 C39.18,59.7315 39.574,60.0045 40,60.0045 C40.099,60.0045 40.199,59.9895 40.299,59.9585 C40.826,59.7935 41.119,59.2325 40.954,58.7055 L38.543,51.0045 L38.832,51.0045 C39.237,51.0045 39.618,50.8065 39.851,50.4755 C40.084,50.1435 40.141,49.7175 40.002,49.3345 L38.428,45.0045 L40,45.0045 C40.553,45.0045 41,44.5565 41,44.0045 L41,41.0045 L59,41.0045 C59.553,41.0045 60,40.5565 60,40.0045 L60,36.0045 C60,35.4525 59.553,35.0045 59,35.0045 L59,35.0045 Z"/><path d="M40.4131,26.111 C40.4071,26.091 40.4021,26.071 40.3941,26.051 C40.3361,25.895 40.2541,25.749 40.1481,25.62 L40.1331,25.602 C39.9061,25.333 39.5881,25.136 39.2061,25.053 C39.1921,25.05 39.1801,25.042 39.1661,25.038 C39.0521,25.017 38.9321,25.005 38.8091,25.005 L38.6011,25.005 C37.0761,25.005 37.0081,25.219 37.0081,25.963 C37.0081,27.244 36.5381,28.246 35.9361,29.005 L39.2181,29.005 C39.5521,29.005 39.9961,28.958 40.2141,28.737 C40.5271,28.418 40.5151,27.623 40.5041,26.983 L40.5001,26.616 C40.5001,26.438 40.4661,26.27 40.4131,26.111"/><path d="M41.1123,23.7951 C41.3043,23.9441 41.4783,24.1101 41.6353,24.2951 C41.6663,24.3311 41.6963,24.3651 41.7263,24.4021 C41.8733,24.5891 42.0013,24.7901 42.1093,25.0051 C42.1223,25.0301 42.1423,25.0501 42.1543,25.0761 L53.3403,15.2531 L55.0003,13.5921 L55.0003,8.4191 L54.7073,8.7121 L41.0653,23.7501 C41.0833,23.7631 41.0943,23.7811 41.1123,23.7951"/><path d="M20,17.0045 C17.09,17.0045 13.756,14.8865 13.111,12.0045 L13.045,12.0045 C13.423,16.1735 16.177,19.0045 20,19.0045 C22.757,19.0045 25,21.2475 25,24.0045 C25,26.5755 26.881,27.8325 28.877,28.4425 C27.768,27.0555 27,25.3545 27,24.0045 C27,20.1445 23.859,17.0045 20,17.0045"/></g></g></g><text x="0" y="75" fill="#000000" font-size="5px" font-weight="bold" font-family="'Helvetica Neue', Helvetica, Arial-Unicode, Arial, Sans-serif">Created by Ben Davis</text><text x="0" y="80" fill="#000000" font-size="5px" font-weight="bold" font-family="'Helvetica Neue', Helvetica, Arial-Unicode, Arial, Sans-serif">from the Noun Project</text></svg>